<svg width="178" height="28" viewBox="0 0 178 28" fill="none" xmlns="http://www.w3.org/2000/svg">
<path d="M27.1591 7.42045V5.54545H40.25V7.42045H34.7614V23H32.6477V7.42045H27.1591ZM46.8295 23.2727C45.5682 23.2727 44.4801 22.9943 43.5653 22.4375C42.6562 21.875 41.9545 21.0909 41.4602 20.0852C40.9716 19.0739 40.7273 17.8977 40.7273 16.5568C40.7273 15.2159 40.9716 14.0341 41.4602 13.0114C41.9545 11.983 42.642 11.1818 43.5227 10.608C44.4091 10.0284 45.4432 9.73864 46.625 9.73864C47.3068 9.73864 47.9801 9.85227 48.6449 10.0795C49.3097 10.3068 49.9148 10.6761 50.4602 11.1875C51.0057 11.6932 51.4403 12.3636 51.7642 13.1989C52.0881 14.0341 52.25 15.0625 52.25 16.2841V17.1364H42.1591V15.3977H50.2045C50.2045 14.6591 50.0568 14 49.7614 13.4205C49.4716 12.8409 49.0568 12.3835 48.517 12.0483C47.983 11.7131 47.3523 11.5455 46.625 11.5455C45.8239 11.5455 45.1307 11.7443 44.5455 12.142C43.9659 12.5341 43.5199 13.0455 43.2074 13.6761C42.8949 14.3068 42.7386 14.983 42.7386 15.7045V16.8636C42.7386 17.8523 42.9091 18.6903 43.25 19.3778C43.5966 20.0597 44.0767 20.5795 44.6903 20.9375C45.304 21.2898 46.017 21.4659 46.8295 21.4659C47.358 21.4659 47.8352 21.392 48.2614 21.2443C48.6932 21.0909 49.0653 20.8636 49.3778 20.5625C49.6903 20.2557 49.9318 19.875 50.1023 19.4205L52.0455 19.9659C51.8409 20.625 51.4972 21.2045 51.0142 21.7045C50.5313 22.1989 49.9347 22.5852 49.2244 22.8636C48.5142 23.1364 47.7159 23.2727 46.8295 23.2727ZM60.6278 23.2727C59.4006 23.2727 58.3438 22.983 57.4574 22.4034C56.571 21.8239 55.8892 21.0256 55.4119 20.0085C54.9347 18.9915 54.696 17.8295 54.696 16.5227C54.696 15.1932 54.9403 14.0199 55.429 13.0028C55.9233 11.9801 56.6108 11.1818 57.4915 10.608C58.3778 10.0284 59.4119 9.73864 60.5938 9.73864C61.5142 9.73864 62.3438 9.90909 63.0824 10.25C63.821 10.5909 64.4261 11.0682 64.8977 11.6818C65.3693 12.2955 65.6619 13.0114 65.7756 13.8295H63.7642C63.6108 13.233 63.2699 12.7045 62.7415 12.2443C62.2188 11.7784 61.5142 11.5455 60.6278 11.5455C59.8438 11.5455 59.1563 11.75 58.5653 12.1591C57.9801 12.5625 57.5227 13.1335 57.1932 13.8722C56.8693 14.6051 56.7074 15.4659 56.7074 16.4545C56.7074 17.4659 56.8665 18.3466 57.1847 19.0966C57.5085 19.8466 57.9631 20.429 58.5483 20.8438C59.1392 21.2585 59.8324 21.4659 60.6278 21.4659C61.1506 21.4659 61.625 21.375 62.0511 21.1932C62.4773 21.0114 62.8381 20.75 63.1335 20.4091C63.429 20.0682 63.6392 19.6591 63.7642 19.1818H65.7756C65.6619 19.9545 65.3807 20.6506 64.9318 21.2699C64.4886 21.8835 63.9006 22.3722 63.1676 22.7358C62.4403 23.0938 61.5938 23.2727 60.6278 23.2727ZM70.7273 15.125V23H68.7159V5.54545H70.7273V11.9545H70.8977C71.2045 11.2784 71.6648 10.7415 72.2784 10.3438C72.8977 9.94034 73.7216 9.73864 74.75 9.73864C75.642 9.73864 76.4233 9.91761 77.0938 10.2756C77.7642 10.6278 78.2841 11.1705 78.6534 11.9034C79.0284 12.6307 79.2159 13.5568 79.2159 14.6818V23H77.2045V14.8182C77.2045 13.7784 76.9347 12.9744 76.3949 12.4062C75.8608 11.8324 75.1193 11.5455 74.1705 11.5455C73.5114 11.5455 72.9205 11.6847 72.3977 11.9631C71.8807 12.2415 71.4716 12.6477 71.1705 13.1818C70.875 13.7159 70.7273 14.3636 70.7273 15.125ZM84.907 15.125V23H82.8956V9.90909H84.8388V11.9545H85.0092C85.3161 11.2898 85.782 10.7557 86.407 10.3523C87.032 9.94318 87.8388 9.73864 88.8274 9.73864C89.7138 9.73864 90.4893 9.92045 91.1541 10.2841C91.8189 10.642 92.3359 11.1875 92.7053 11.9205C93.0746 12.6477 93.2592 13.5682 93.2592 14.6818V23H91.2479V14.8182C91.2479 13.7898 90.9808 12.9886 90.4467 12.4148C89.9126 11.8352 89.1797 11.5455 88.2479 11.5455C87.6058 11.5455 87.032 11.6847 86.5263 11.9631C86.0263 12.2415 85.6314 12.6477 85.3416 13.1818C85.0518 13.7159 84.907 14.3636 84.907 15.125ZM102.253 23.2727C101.071 23.2727 100.034 22.9915 99.142 22.429C98.2557 21.8665 97.5625 21.0795 97.0625 20.0682C96.5682 19.0568 96.321 17.875 96.321 16.5227C96.321 15.1591 96.5682 13.9687 97.0625 12.9517C97.5625 11.9347 98.2557 11.1449 99.142 10.5824C100.034 10.0199 101.071 9.73864 102.253 9.73864C103.435 9.73864 104.469 10.0199 105.355 10.5824C106.247 11.1449 106.94 11.9347 107.435 12.9517C107.935 13.9687 108.185 15.1591 108.185 16.5227C108.185 17.875 107.935 19.0568 107.435 20.0682C106.94 21.0795 106.247 21.8665 105.355 22.429C104.469 22.9915 103.435 23.2727 102.253 23.2727ZM102.253 21.4659C103.151 21.4659 103.889 21.2358 104.469 20.7756C105.048 20.3153 105.477 19.7102 105.756 18.9602C106.034 18.2102 106.173 17.3977 106.173 16.5227C106.173 15.6477 106.034 14.8324 105.756 14.0767C105.477 13.321 105.048 12.7102 104.469 12.2443C103.889 11.7784 103.151 11.5455 102.253 11.5455C101.355 11.5455 100.616 11.7784 100.037 12.2443C99.4574 12.7102 99.0284 13.321 98.75 14.0767C98.4716 14.8324 98.3324 15.6477 98.3324 16.5227C98.3324 17.3977 98.4716 18.2102 98.75 18.9602C99.0284 19.7102 99.4574 20.3153 100.037 20.7756C100.616 21.2358 101.355 21.4659 102.253 21.4659ZM121.073 9.90909C120.971 9.04545 120.556 8.375 119.829 7.89773C119.102 7.42045 118.21 7.18182 117.153 7.18182C116.38 7.18182 115.704 7.30682 115.124 7.55682C114.55 7.80682 114.102 8.15057 113.778 8.58807C113.46 9.02557 113.3 9.52273 113.3 10.0795C113.3 10.5455 113.411 10.946 113.633 11.2812C113.86 11.6108 114.15 11.8864 114.502 12.108C114.854 12.3239 115.224 12.5028 115.61 12.6449C115.996 12.7812 116.352 12.892 116.675 12.9773L118.448 13.4545C118.903 13.5739 119.408 13.7386 119.965 13.9489C120.528 14.1591 121.065 14.446 121.576 14.8097C122.093 15.1676 122.519 15.6278 122.854 16.1903C123.19 16.7528 123.357 17.4432 123.357 18.2614C123.357 19.2045 123.11 20.0568 122.616 20.8182C122.127 21.5795 121.411 22.1847 120.468 22.6335C119.531 23.0824 118.391 23.3068 117.05 23.3068C115.8 23.3068 114.718 23.1051 113.803 22.7017C112.894 22.2983 112.178 21.7358 111.656 21.0142C111.138 20.2926 110.846 19.4545 110.778 18.5H112.96C113.016 19.1591 113.238 19.7045 113.624 20.1364C114.016 20.5625 114.511 20.8807 115.107 21.0909C115.71 21.2955 116.357 21.3977 117.05 21.3977C117.857 21.3977 118.582 21.267 119.224 21.0057C119.866 20.7386 120.374 20.3693 120.749 19.8977C121.124 19.4205 121.312 18.8636 121.312 18.2273C121.312 17.6477 121.15 17.1761 120.826 16.8125C120.502 16.4489 120.076 16.1534 119.548 15.9261C119.019 15.6989 118.448 15.5 117.835 15.3295L115.687 14.7159C114.323 14.3239 113.244 13.7642 112.448 13.0369C111.653 12.3097 111.255 11.358 111.255 10.1818C111.255 9.20454 111.519 8.35227 112.048 7.625C112.582 6.89205 113.298 6.32386 114.195 5.92045C115.099 5.51136 116.107 5.30682 117.221 5.30682C118.346 5.30682 119.346 5.50852 120.221 5.91193C121.096 6.30966 121.789 6.85511 122.3 7.54829C122.817 8.24148 123.09 9.02841 123.119 9.90909H121.073ZM132.253 9.90909V11.6136H125.469V9.90909H132.253ZM127.446 6.77273H129.457V19.25C129.457 19.8182 129.54 20.2443 129.705 20.5284C129.875 20.8068 130.091 20.9943 130.352 21.0909C130.619 21.1818 130.901 21.2273 131.196 21.2273C131.418 21.2273 131.599 21.2159 131.741 21.1932C131.884 21.1648 131.997 21.142 132.082 21.125L132.491 22.9318C132.355 22.983 132.165 23.0341 131.92 23.0852C131.676 23.142 131.366 23.1705 130.991 23.1705C130.423 23.1705 129.866 23.0483 129.321 22.804C128.781 22.5597 128.332 22.1875 127.974 21.6875C127.622 21.1875 127.446 20.5568 127.446 19.7955V6.77273ZM140.456 23.2727C139.274 23.2727 138.237 22.9915 137.345 22.429C136.459 21.8665 135.766 21.0795 135.266 20.0682C134.771 19.0568 134.524 17.875 134.524 16.5227C134.524 15.1591 134.771 13.9687 135.266 12.9517C135.766 11.9347 136.459 11.1449 137.345 10.5824C138.237 10.0199 139.274 9.73864 140.456 9.73864C141.638 9.73864 142.672 10.0199 143.558 10.5824C144.45 11.1449 145.143 11.9347 145.638 12.9517C146.138 13.9687 146.388 15.1591 146.388 16.5227C146.388 17.875 146.138 19.0568 145.638 20.0682C145.143 21.0795 144.45 21.8665 143.558 22.429C142.672 22.9915 141.638 23.2727 140.456 23.2727ZM140.456 21.4659C141.354 21.4659 142.092 21.2358 142.672 20.7756C143.251 20.3153 143.68 19.7102 143.959 18.9602C144.237 18.2102 144.376 17.3977 144.376 16.5227C144.376 15.6477 144.237 14.8324 143.959 14.0767C143.68 13.321 143.251 12.7102 142.672 12.2443C142.092 11.7784 141.354 11.5455 140.456 11.5455C139.558 11.5455 138.82 11.7784 138.24 12.2443C137.661 12.7102 137.232 13.321 136.953 14.0767C136.675 14.8324 136.536 15.6477 136.536 16.5227C136.536 17.3977 136.675 18.2102 136.953 18.9602C137.232 19.7102 137.661 20.3153 138.24 20.7756C138.82 21.2358 139.558 21.4659 140.456 21.4659ZM149.458 23V9.90909H151.401V11.8864H151.538C151.776 11.2386 152.208 10.7131 152.833 10.3097C153.458 9.90625 154.163 9.70454 154.947 9.70454C155.094 9.70454 155.279 9.70739 155.501 9.71307C155.722 9.71875 155.89 9.72727 156.004 9.73864V11.7841C155.935 11.767 155.779 11.7415 155.535 11.7074C155.296 11.6676 155.043 11.6477 154.776 11.6477C154.14 11.6477 153.572 11.7812 153.072 12.0483C152.577 12.3097 152.185 12.6733 151.896 13.1392C151.612 13.5994 151.469 14.125 151.469 14.7159V23H149.458ZM163.478 23.2727C162.217 23.2727 161.129 22.9943 160.214 22.4375C159.305 21.875 158.603 21.0909 158.109 20.0852C157.62 19.0739 157.376 17.8977 157.376 16.5568C157.376 15.2159 157.62 14.0341 158.109 13.0114C158.603 11.983 159.29 11.1818 160.171 10.608C161.058 10.0284 162.092 9.73864 163.273 9.73864C163.955 9.73864 164.629 9.85227 165.293 10.0795C165.958 10.3068 166.563 10.6761 167.109 11.1875C167.654 11.6932 168.089 12.3636 168.413 13.1989C168.737 14.0341 168.898 15.0625 168.898 16.2841V17.1364H158.808V15.3977H166.853C166.853 14.6591 166.705 14 166.41 13.4205C166.12 12.8409 165.705 12.3835 165.165 12.0483C164.631 11.7131 164.001 11.5455 163.273 11.5455C162.472 11.5455 161.779 11.7443 161.194 12.142C160.614 12.5341 160.168 13.0455 159.856 13.6761C159.543 14.3068 159.387 14.983 159.387 15.7045V16.8636C159.387 17.8523 159.558 18.6903 159.898 19.3778C160.245 20.0597 160.725 20.5795 161.339 20.9375C161.952 21.2898 162.665 21.4659 163.478 21.4659C164.006 21.4659 164.484 21.392 164.91 21.2443C165.342 21.0909 165.714 20.8636 166.026 20.5625C166.339 20.2557 166.58 19.875 166.751 19.4205L168.694 19.9659C168.489 20.625 168.146 21.2045 167.663 21.7045C167.18 22.1989 166.583 22.5852 165.873 22.8636C165.163 23.1364 164.364 23.2727 163.478 23.2727Z" fill="black"/>
<path fill-rule="evenodd" clip-rule="evenodd" d="M18.2539 12.8705L13 6L7.74612 12.8705V21.3334H4.7439V16.7964L0 23H26L21.2561 16.7965V21.3334H18.2539V12.8705ZM15.2517 14.6667H10.7484V21.3333H15.2517V14.6667Z" fill="black"/>
</svg>
