<?xml version="1.0" standalone="no"?>
<!DOCTYPE svg PUBLIC "-//W3C//DTD SVG 20010904//EN"
 "http://www.w3.org/TR/2001/REC-SVG-20010904/DTD/svg10.dtd">
<svg version="1.0" xmlns="http://www.w3.org/2000/svg"
 width="1280.000000pt" height="1280.000000pt" viewBox="0 0 1280.000000 1280.000000"
 preserveAspectRatio="xMidYMid meet">
<g transform="translate(0.000000,1280.000000) scale(0.100000,-0.100000)"
fill="#000000" stroke="none">
<path d="M520 12646 c-78 -22 -153 -67 -221 -133 -213 -205 -213 -501 0 -706
209 -202 493 -197 694 12 198 205 198 477 0 682 -69 72 -152 123 -237 145 -62
17 -175 17 -236 0z"/>
<path d="M1800 12646 c-78 -22 -153 -67 -221 -133 -213 -205 -213 -501 0 -706
209 -202 493 -197 694 12 198 205 198 477 0 682 -69 72 -152 123 -237 145 -62
17 -175 17 -236 0z"/>
<path d="M3080 12646 c-78 -22 -153 -67 -221 -133 -213 -205 -213 -501 0 -706
209 -202 493 -197 694 12 198 205 198 477 0 682 -69 72 -152 123 -237 145 -62
17 -175 17 -236 0z"/>
<path d="M4360 12646 c-78 -22 -153 -67 -221 -133 -213 -205 -213 -501 0 -706
209 -202 493 -197 694 12 198 205 198 477 0 682 -69 72 -152 123 -237 145 -62
17 -175 17 -236 0z"/>
<path d="M5640 12646 c-78 -22 -153 -67 -221 -133 -213 -205 -213 -501 0 -706
209 -202 493 -197 694 12 100 103 147 213 147 341 0 128 -47 238 -147 341 -69
72 -152 123 -237 145 -62 17 -175 17 -236 0z"/>
<path d="M6920 12646 c-78 -22 -153 -67 -221 -133 -213 -205 -213 -501 0 -706
209 -202 493 -197 694 12 100 103 147 213 147 341 0 128 -47 238 -147 341 -69
72 -152 123 -237 145 -62 17 -175 17 -236 0z"/>
<path d="M8200 12646 c-78 -22 -153 -67 -221 -133 -213 -205 -213 -501 0 -706
209 -202 493 -197 694 12 100 103 147 213 147 341 0 128 -47 238 -147 341 -69
72 -152 123 -237 145 -62 17 -175 17 -236 0z"/>
<path d="M9480 12646 c-78 -22 -153 -67 -221 -133 -213 -205 -213 -501 0 -706
209 -202 493 -197 694 12 100 103 147 213 147 341 0 128 -47 238 -147 341 -69
72 -152 123 -237 145 -62 17 -175 17 -236 0z"/>
<path d="M10760 12646 c-78 -22 -153 -67 -221 -133 -213 -205 -213 -501 0
-706 209 -202 493 -197 694 12 198 205 198 477 0 682 -69 72 -152 123 -237
145 -62 17 -175 17 -236 0z"/>
<path d="M12040 12646 c-78 -22 -153 -67 -221 -133 -213 -205 -213 -501 0
-706 209 -202 493 -197 694 12 198 205 198 477 0 682 -69 72 -152 123 -237
145 -62 17 -175 17 -236 0z"/>
<path d="M520 11366 c-78 -22 -153 -67 -221 -133 -213 -205 -213 -501 0 -706
209 -202 493 -197 694 12 198 205 198 477 0 682 -69 72 -152 123 -237 145 -62
17 -175 17 -236 0z"/>
<path d="M1800 11366 c-78 -22 -153 -67 -221 -133 -213 -205 -213 -501 0 -706
209 -202 493 -197 694 12 198 205 198 477 0 682 -69 72 -152 123 -237 145 -62
17 -175 17 -236 0z"/>
<path d="M3080 11366 c-78 -22 -153 -67 -221 -133 -213 -205 -213 -501 0 -706
209 -202 493 -197 694 12 198 205 198 477 0 682 -69 72 -152 123 -237 145 -62
17 -175 17 -236 0z"/>
<path d="M4360 11366 c-78 -22 -153 -67 -221 -133 -213 -205 -213 -501 0 -706
209 -202 493 -197 694 12 198 205 198 477 0 682 -69 72 -152 123 -237 145 -62
17 -175 17 -236 0z"/>
<path d="M5640 11366 c-78 -22 -153 -67 -221 -133 -213 -205 -213 -501 0 -706
209 -202 493 -197 694 12 100 103 147 213 147 341 0 128 -47 238 -147 341 -69
72 -152 123 -237 145 -62 17 -175 17 -236 0z"/>
<path d="M6920 11366 c-78 -22 -153 -67 -221 -133 -213 -205 -213 -501 0 -706
209 -202 493 -197 694 12 100 103 147 213 147 341 0 128 -47 238 -147 341 -69
72 -152 123 -237 145 -62 17 -175 17 -236 0z"/>
<path d="M8200 11366 c-78 -22 -153 -67 -221 -133 -213 -205 -213 -501 0 -706
209 -202 493 -197 694 12 100 103 147 213 147 341 0 128 -47 238 -147 341 -69
72 -152 123 -237 145 -62 17 -175 17 -236 0z"/>
<path d="M9480 11366 c-78 -22 -153 -67 -221 -133 -213 -205 -213 -501 0 -706
209 -202 493 -197 694 12 100 103 147 213 147 341 0 128 -47 238 -147 341 -69
72 -152 123 -237 145 -62 17 -175 17 -236 0z"/>
<path d="M10760 11366 c-78 -22 -153 -67 -221 -133 -213 -205 -213 -501 0
-706 209 -202 493 -197 694 12 198 205 198 477 0 682 -69 72 -152 123 -237
145 -62 17 -175 17 -236 0z"/>
<path d="M12040 11366 c-78 -22 -153 -67 -221 -133 -213 -205 -213 -501 0
-706 209 -202 493 -197 694 12 198 205 198 477 0 682 -69 72 -152 123 -237
145 -62 17 -175 17 -236 0z"/>
<path d="M520 10086 c-78 -22 -153 -67 -221 -133 -213 -205 -213 -501 0 -706
209 -202 493 -197 694 12 198 205 198 477 0 682 -69 72 -152 123 -237 145 -62
17 -175 17 -236 0z"/>
<path d="M1800 10086 c-78 -22 -153 -67 -221 -133 -213 -205 -213 -501 0 -706
209 -202 493 -197 694 12 198 205 198 477 0 682 -69 72 -152 123 -237 145 -62
17 -175 17 -236 0z"/>
<path d="M3080 10086 c-78 -22 -153 -67 -221 -133 -213 -205 -213 -501 0 -706
209 -202 493 -197 694 12 198 205 198 477 0 682 -69 72 -152 123 -237 145 -62
17 -175 17 -236 0z"/>
<path d="M4360 10086 c-78 -22 -153 -67 -221 -133 -213 -205 -213 -501 0 -706
209 -202 493 -197 694 12 198 205 198 477 0 682 -69 72 -152 123 -237 145 -62
17 -175 17 -236 0z"/>
<path d="M5640 10086 c-78 -22 -153 -67 -221 -133 -213 -205 -213 -501 0 -706
209 -202 493 -197 694 12 198 205 198 477 0 682 -69 72 -152 123 -237 145 -62
17 -175 17 -236 0z"/>
<path d="M6920 10086 c-78 -22 -153 -67 -221 -133 -213 -205 -213 -501 0 -706
209 -202 493 -197 694 12 198 205 198 477 0 682 -69 72 -152 123 -237 145 -62
17 -175 17 -236 0z"/>
<path d="M8200 10086 c-78 -22 -153 -67 -221 -133 -213 -205 -213 -501 0 -706
209 -202 493 -197 694 12 198 205 198 477 0 682 -69 72 -152 123 -237 145 -62
17 -175 17 -236 0z"/>
<path d="M9480 10086 c-78 -22 -153 -67 -221 -133 -213 -205 -213 -501 0 -706
209 -202 493 -197 694 12 198 205 198 477 0 682 -69 72 -152 123 -237 145 -62
17 -175 17 -236 0z"/>
<path d="M10760 10086 c-78 -22 -153 -67 -221 -133 -213 -205 -213 -501 0
-706 209 -202 493 -197 694 12 198 205 198 477 0 682 -69 72 -152 123 -237
145 -62 17 -175 17 -236 0z"/>
<path d="M12040 10086 c-78 -22 -153 -67 -221 -133 -213 -205 -213 -501 0
-706 209 -202 493 -197 694 12 198 205 198 477 0 682 -69 72 -152 123 -237
145 -62 17 -175 17 -236 0z"/>
<path d="M520 8806 c-78 -22 -153 -67 -221 -133 -213 -205 -213 -501 0 -706
209 -202 493 -197 694 12 198 205 198 477 0 682 -69 72 -152 123 -237 145 -62
17 -175 17 -236 0z"/>
<path d="M1800 8806 c-78 -22 -153 -67 -221 -133 -213 -205 -213 -501 0 -706
209 -202 493 -197 694 12 198 205 198 477 0 682 -69 72 -152 123 -237 145 -62
17 -175 17 -236 0z"/>
<path d="M3080 8806 c-78 -22 -153 -67 -221 -133 -213 -205 -213 -501 0 -706
209 -202 493 -197 694 12 198 205 198 477 0 682 -69 72 -152 123 -237 145 -62
17 -175 17 -236 0z"/>
<path d="M4360 8806 c-78 -22 -153 -67 -221 -133 -213 -205 -213 -501 0 -706
209 -202 493 -197 694 12 198 205 198 477 0 682 -69 72 -152 123 -237 145 -62
17 -175 17 -236 0z"/>
<path d="M5640 8806 c-78 -22 -153 -67 -221 -133 -213 -205 -213 -501 0 -706
209 -202 493 -197 694 12 198 205 198 477 0 682 -69 72 -152 123 -237 145 -62
17 -175 17 -236 0z"/>
<path d="M6920 8806 c-78 -22 -153 -67 -221 -133 -213 -205 -213 -501 0 -706
209 -202 493 -197 694 12 198 205 198 477 0 682 -69 72 -152 123 -237 145 -62
17 -175 17 -236 0z"/>
<path d="M8200 8806 c-78 -22 -153 -67 -221 -133 -213 -205 -213 -501 0 -706
209 -202 493 -197 694 12 198 205 198 477 0 682 -69 72 -152 123 -237 145 -62
17 -175 17 -236 0z"/>
<path d="M9480 8806 c-78 -22 -153 -67 -221 -133 -213 -205 -213 -501 0 -706
209 -202 493 -197 694 12 198 205 198 477 0 682 -69 72 -152 123 -237 145 -62
17 -175 17 -236 0z"/>
<path d="M10760 8806 c-78 -22 -153 -67 -221 -133 -213 -205 -213 -501 0 -706
209 -202 493 -197 694 12 198 205 198 477 0 682 -69 72 -152 123 -237 145 -62
17 -175 17 -236 0z"/>
<path d="M12040 8806 c-78 -22 -153 -67 -221 -133 -213 -205 -213 -501 0 -706
209 -202 493 -197 694 12 198 205 198 477 0 682 -69 72 -152 123 -237 145 -62
17 -175 17 -236 0z"/>
<path d="M520 7526 c-78 -22 -153 -67 -221 -133 -213 -205 -213 -501 0 -706
209 -202 493 -197 694 12 198 205 198 477 0 682 -69 72 -152 123 -237 145 -62
17 -175 17 -236 0z"/>
<path d="M1800 7526 c-78 -22 -153 -67 -221 -133 -213 -205 -213 -501 0 -706
209 -202 493 -197 694 12 198 205 198 477 0 682 -69 72 -152 123 -237 145 -62
17 -175 17 -236 0z"/>
<path d="M3080 7526 c-78 -22 -153 -67 -221 -133 -213 -205 -213 -501 0 -706
209 -202 493 -197 694 12 198 205 198 477 0 682 -69 72 -152 123 -237 145 -62
17 -175 17 -236 0z"/>
<path d="M4360 7526 c-78 -22 -153 -67 -221 -133 -213 -205 -213 -501 0 -706
209 -202 493 -197 694 12 198 205 198 477 0 682 -69 72 -152 123 -237 145 -62
17 -175 17 -236 0z"/>
<path d="M5640 7526 c-78 -22 -153 -67 -221 -133 -213 -205 -213 -501 0 -706
209 -202 493 -197 694 12 198 205 198 477 0 682 -69 72 -152 123 -237 145 -62
17 -175 17 -236 0z"/>
<path d="M6920 7526 c-78 -22 -153 -67 -221 -133 -213 -205 -213 -501 0 -706
209 -202 493 -197 694 12 198 205 198 477 0 682 -69 72 -152 123 -237 145 -62
17 -175 17 -236 0z"/>
<path d="M8200 7526 c-78 -22 -153 -67 -221 -133 -213 -205 -213 -501 0 -706
209 -202 493 -197 694 12 198 205 198 477 0 682 -69 72 -152 123 -237 145 -62
17 -175 17 -236 0z"/>
<path d="M9480 7526 c-78 -22 -153 -67 -221 -133 -213 -205 -213 -501 0 -706
209 -202 493 -197 694 12 198 205 198 477 0 682 -69 72 -152 123 -237 145 -62
17 -175 17 -236 0z"/>
<path d="M10760 7526 c-78 -22 -153 -67 -221 -133 -213 -205 -213 -501 0 -706
209 -202 493 -197 694 12 198 205 198 477 0 682 -69 72 -152 123 -237 145 -62
17 -175 17 -236 0z"/>
<path d="M12040 7526 c-78 -22 -153 -67 -221 -133 -213 -205 -213 -501 0 -706
209 -202 493 -197 694 12 198 205 198 477 0 682 -69 72 -152 123 -237 145 -62
17 -175 17 -236 0z"/>
<path d="M520 6246 c-78 -22 -153 -67 -221 -133 -213 -205 -213 -501 0 -706
209 -202 493 -197 694 12 198 205 198 477 0 682 -69 72 -152 123 -237 145 -62
17 -175 17 -236 0z"/>
<path d="M1800 6246 c-78 -22 -153 -67 -221 -133 -213 -205 -213 -501 0 -706
209 -202 493 -197 694 12 198 205 198 477 0 682 -69 72 -152 123 -237 145 -62
17 -175 17 -236 0z"/>
<path d="M3080 6246 c-78 -22 -153 -67 -221 -133 -213 -205 -213 -501 0 -706
209 -202 493 -197 694 12 198 205 198 477 0 682 -69 72 -152 123 -237 145 -62
17 -175 17 -236 0z"/>
<path d="M4360 6246 c-78 -22 -153 -67 -221 -133 -213 -205 -213 -501 0 -706
209 -202 493 -197 694 12 198 205 198 477 0 682 -69 72 -152 123 -237 145 -62
17 -175 17 -236 0z"/>
<path d="M5640 6246 c-78 -22 -153 -67 -221 -133 -213 -205 -213 -501 0 -706
209 -202 493 -197 694 12 198 205 198 477 0 682 -69 72 -152 123 -237 145 -62
17 -175 17 -236 0z"/>
<path d="M6920 6246 c-78 -22 -153 -67 -221 -133 -213 -205 -213 -501 0 -706
209 -202 493 -197 694 12 198 205 198 477 0 682 -69 72 -152 123 -237 145 -62
17 -175 17 -236 0z"/>
<path d="M8200 6246 c-78 -22 -153 -67 -221 -133 -213 -205 -213 -501 0 -706
209 -202 493 -197 694 12 198 205 198 477 0 682 -69 72 -152 123 -237 145 -62
17 -175 17 -236 0z"/>
<path d="M9480 6246 c-78 -22 -153 -67 -221 -133 -213 -205 -213 -501 0 -706
209 -202 493 -197 694 12 198 205 198 477 0 682 -69 72 -152 123 -237 145 -62
17 -175 17 -236 0z"/>
<path d="M10760 6246 c-78 -22 -153 -67 -221 -133 -213 -205 -213 -501 0 -706
209 -202 493 -197 694 12 198 205 198 477 0 682 -69 72 -152 123 -237 145 -62
17 -175 17 -236 0z"/>
<path d="M12040 6246 c-78 -22 -153 -67 -221 -133 -213 -205 -213 -501 0 -706
209 -202 493 -197 694 12 198 205 198 477 0 682 -69 72 -152 123 -237 145 -62
17 -175 17 -236 0z"/>
<path d="M520 4966 c-78 -22 -153 -67 -221 -133 -213 -205 -213 -501 0 -706
209 -202 493 -197 694 12 198 205 198 477 0 682 -69 72 -152 123 -237 145 -62
17 -175 17 -236 0z"/>
<path d="M1800 4966 c-78 -22 -153 -67 -221 -133 -213 -205 -213 -501 0 -706
209 -202 493 -197 694 12 198 205 198 477 0 682 -69 72 -152 123 -237 145 -62
17 -175 17 -236 0z"/>
<path d="M3080 4966 c-78 -22 -153 -67 -221 -133 -213 -205 -213 -501 0 -706
209 -202 493 -197 694 12 198 205 198 477 0 682 -69 72 -152 123 -237 145 -62
17 -175 17 -236 0z"/>
<path d="M4360 4966 c-78 -22 -153 -67 -221 -133 -213 -205 -213 -501 0 -706
209 -202 493 -197 694 12 198 205 198 477 0 682 -69 72 -152 123 -237 145 -62
17 -175 17 -236 0z"/>
<path d="M5640 4966 c-78 -22 -153 -67 -221 -133 -213 -205 -213 -501 0 -706
209 -202 493 -197 694 12 100 103 147 213 147 341 0 128 -47 238 -147 341 -69
72 -152 123 -237 145 -62 17 -175 17 -236 0z"/>
<path d="M6920 4966 c-78 -22 -153 -67 -221 -133 -213 -205 -213 -501 0 -706
209 -202 493 -197 694 12 100 103 147 213 147 341 0 128 -47 238 -147 341 -69
72 -152 123 -237 145 -62 17 -175 17 -236 0z"/>
<path d="M8200 4966 c-78 -22 -153 -67 -221 -133 -213 -205 -213 -501 0 -706
209 -202 493 -197 694 12 100 103 147 213 147 341 0 128 -47 238 -147 341 -69
72 -152 123 -237 145 -62 17 -175 17 -236 0z"/>
<path d="M9480 4966 c-78 -22 -153 -67 -221 -133 -213 -205 -213 -501 0 -706
209 -202 493 -197 694 12 100 103 147 213 147 341 0 128 -47 238 -147 341 -69
72 -152 123 -237 145 -62 17 -175 17 -236 0z"/>
<path d="M10760 4966 c-78 -22 -153 -67 -221 -133 -213 -205 -213 -501 0 -706
209 -202 493 -197 694 12 198 205 198 477 0 682 -69 72 -152 123 -237 145 -62
17 -175 17 -236 0z"/>
<path d="M12040 4966 c-78 -22 -153 -67 -221 -133 -213 -205 -213 -501 0 -706
209 -202 493 -197 694 12 198 205 198 477 0 682 -69 72 -152 123 -237 145 -62
17 -175 17 -236 0z"/>
<path d="M520 3686 c-78 -22 -153 -67 -221 -133 -213 -205 -213 -501 0 -706
209 -202 493 -197 694 12 198 205 198 477 0 682 -69 72 -152 123 -237 145 -62
17 -175 17 -236 0z"/>
<path d="M1800 3686 c-78 -22 -153 -67 -221 -133 -213 -205 -213 -501 0 -706
209 -202 493 -197 694 12 198 205 198 477 0 682 -69 72 -152 123 -237 145 -62
17 -175 17 -236 0z"/>
<path d="M3080 3686 c-78 -22 -153 -67 -221 -133 -213 -205 -213 -501 0 -706
209 -202 493 -197 694 12 198 205 198 477 0 682 -69 72 -152 123 -237 145 -62
17 -175 17 -236 0z"/>
<path d="M4360 3686 c-78 -22 -153 -67 -221 -133 -213 -205 -213 -501 0 -706
209 -202 493 -197 694 12 198 205 198 477 0 682 -69 72 -152 123 -237 145 -62
17 -175 17 -236 0z"/>
<path d="M5640 3686 c-78 -22 -153 -67 -221 -133 -213 -205 -213 -501 0 -706
209 -202 493 -197 694 12 100 103 147 213 147 341 0 128 -47 238 -147 341 -69
72 -152 123 -237 145 -62 17 -175 17 -236 0z"/>
<path d="M6920 3686 c-78 -22 -153 -67 -221 -133 -213 -205 -213 -501 0 -706
209 -202 493 -197 694 12 100 103 147 213 147 341 0 128 -47 238 -147 341 -69
72 -152 123 -237 145 -62 17 -175 17 -236 0z"/>
<path d="M8200 3686 c-78 -22 -153 -67 -221 -133 -213 -205 -213 -501 0 -706
209 -202 493 -197 694 12 100 103 147 213 147 341 0 128 -47 238 -147 341 -69
72 -152 123 -237 145 -62 17 -175 17 -236 0z"/>
<path d="M9480 3686 c-78 -22 -153 -67 -221 -133 -213 -205 -213 -501 0 -706
209 -202 493 -197 694 12 100 103 147 213 147 341 0 128 -47 238 -147 341 -69
72 -152 123 -237 145 -62 17 -175 17 -236 0z"/>
<path d="M10760 3686 c-78 -22 -153 -67 -221 -133 -213 -205 -213 -501 0 -706
209 -202 493 -197 694 12 198 205 198 477 0 682 -69 72 -152 123 -237 145 -62
17 -175 17 -236 0z"/>
<path d="M12040 3686 c-78 -22 -153 -67 -221 -133 -213 -205 -213 -501 0 -706
209 -202 493 -197 694 12 198 205 198 477 0 682 -69 72 -152 123 -237 145 -62
17 -175 17 -236 0z"/>
<path d="M520 2406 c-78 -22 -153 -67 -221 -133 -213 -205 -213 -501 0 -706
209 -202 493 -197 694 12 198 205 198 477 0 682 -69 72 -152 123 -237 145 -62
17 -175 17 -236 0z"/>
<path d="M1800 2406 c-78 -22 -153 -67 -221 -133 -213 -205 -213 -501 0 -706
209 -202 493 -197 694 12 198 205 198 477 0 682 -69 72 -152 123 -237 145 -62
17 -175 17 -236 0z"/>
<path d="M3080 2406 c-78 -22 -153 -67 -221 -133 -213 -205 -213 -501 0 -706
209 -202 493 -197 694 12 198 205 198 477 0 682 -69 72 -152 123 -237 145 -62
17 -175 17 -236 0z"/>
<path d="M4360 2406 c-78 -22 -153 -67 -221 -133 -213 -205 -213 -501 0 -706
209 -202 493 -197 694 12 198 205 198 477 0 682 -69 72 -152 123 -237 145 -62
17 -175 17 -236 0z"/>
<path d="M5640 2406 c-78 -22 -153 -67 -221 -133 -213 -205 -213 -501 0 -706
209 -202 493 -197 694 12 100 103 147 213 147 341 0 128 -47 238 -147 341 -69
72 -152 123 -237 145 -62 17 -175 17 -236 0z"/>
<path d="M6920 2406 c-78 -22 -153 -67 -221 -133 -213 -205 -213 -501 0 -706
209 -202 493 -197 694 12 100 103 147 213 147 341 0 128 -47 238 -147 341 -69
72 -152 123 -237 145 -62 17 -175 17 -236 0z"/>
<path d="M8200 2406 c-78 -22 -153 -67 -221 -133 -213 -205 -213 -501 0 -706
209 -202 493 -197 694 12 100 103 147 213 147 341 0 128 -47 238 -147 341 -69
72 -152 123 -237 145 -62 17 -175 17 -236 0z"/>
<path d="M9480 2406 c-78 -22 -153 -67 -221 -133 -213 -205 -213 -501 0 -706
209 -202 493 -197 694 12 100 103 147 213 147 341 0 128 -47 238 -147 341 -69
72 -152 123 -237 145 -62 17 -175 17 -236 0z"/>
<path d="M10760 2406 c-78 -22 -153 -67 -221 -133 -213 -205 -213 -501 0 -706
209 -202 493 -197 694 12 198 205 198 477 0 682 -69 72 -152 123 -237 145 -62
17 -175 17 -236 0z"/>
<path d="M12040 2406 c-78 -22 -153 -67 -221 -133 -213 -205 -213 -501 0 -706
209 -202 493 -197 694 12 198 205 198 477 0 682 -69 72 -152 123 -237 145 -62
17 -175 17 -236 0z"/>
<path d="M520 1126 c-78 -22 -153 -67 -221 -133 -213 -205 -213 -501 0 -706
209 -202 493 -197 694 12 198 205 198 477 0 682 -69 72 -152 123 -237 145 -62
17 -175 17 -236 0z"/>
<path d="M1800 1126 c-78 -22 -153 -67 -221 -133 -213 -205 -213 -501 0 -706
209 -202 493 -197 694 12 198 205 198 477 0 682 -69 72 -152 123 -237 145 -62
17 -175 17 -236 0z"/>
<path d="M3080 1126 c-78 -22 -153 -67 -221 -133 -213 -205 -213 -501 0 -706
209 -202 493 -197 694 12 198 205 198 477 0 682 -69 72 -152 123 -237 145 -62
17 -175 17 -236 0z"/>
<path d="M4360 1126 c-78 -22 -153 -67 -221 -133 -213 -205 -213 -501 0 -706
209 -202 493 -197 694 12 198 205 198 477 0 682 -69 72 -152 123 -237 145 -62
17 -175 17 -236 0z"/>
<path d="M5640 1126 c-78 -22 -153 -67 -221 -133 -213 -205 -213 -501 0 -706
209 -202 493 -197 694 12 100 103 147 213 147 341 0 128 -47 238 -147 341 -69
72 -152 123 -237 145 -62 17 -175 17 -236 0z"/>
<path d="M6920 1126 c-78 -22 -153 -67 -221 -133 -213 -205 -213 -501 0 -706
209 -202 493 -197 694 12 100 103 147 213 147 341 0 128 -47 238 -147 341 -69
72 -152 123 -237 145 -62 17 -175 17 -236 0z"/>
<path d="M8200 1126 c-78 -22 -153 -67 -221 -133 -213 -205 -213 -501 0 -706
209 -202 493 -197 694 12 100 103 147 213 147 341 0 128 -47 238 -147 341 -69
72 -152 123 -237 145 -62 17 -175 17 -236 0z"/>
<path d="M9480 1126 c-78 -22 -153 -67 -221 -133 -213 -205 -213 -501 0 -706
209 -202 493 -197 694 12 100 103 147 213 147 341 0 128 -47 238 -147 341 -69
72 -152 123 -237 145 -62 17 -175 17 -236 0z"/>
<path d="M10760 1126 c-78 -22 -153 -67 -221 -133 -213 -205 -213 -501 0 -706
209 -202 493 -197 694 12 198 205 198 477 0 682 -69 72 -152 123 -237 145 -62
17 -175 17 -236 0z"/>
<path d="M12040 1126 c-78 -22 -153 -67 -221 -133 -213 -205 -213 -501 0 -706
209 -202 493 -197 694 12 198 205 198 477 0 682 -69 72 -152 123 -237 145 -62
17 -175 17 -236 0z"/>
</g>
</svg>
